{"title":"Dabangg 2 (2012) Hindi HDCAM MPEG - Exclusive","uid":7944794,"size":693037150,"categoryP":"video","categoryS":"movies","magnet":"?xt=urn:btih:6e093cf48b5197ffc974c18eacc5c8f4c6cbbe9b&amp;dn=Dabangg+2+%282012%29+Hindi+HDCAM+MPEG+-+Exclusive&amp;tr=udp%3A%2F%2Ftracker.openbittorrent.com%3A80&amp;tr=udp%3A%2F%2Fopen.demonii.com%3A1337&amp;tr=udp%3A%2F%2Ftracker.coppersurfer.tk%3A6969&amp;tr=udp%3A%2F%2Fexodus.desync.com%3A6969","seeders":1,"leechers":0,"uploader":"tykoon123","files":-1,"time":1356099919,"description":"Poster: &lt;a href=&quot;\nhttp://imgr.us/images/4a0ld17n448d1lney0zf.jpg&quot; rel=&quot;nofollow&quot; target=&quot;_NEW&quot;&gt;\nhttp://imgr.us/images/4a0ld17n448d1lney0zf.jpg&lt;/a&gt;\n\nInfo:\n\nFormat : MPEG-PS\nFile size : 661 MiB\nDuration : 1h 54mn\nOverall bit rate mode : Variable\nOverall bit rate : 808 Kbps\n\nVideo\nID : 224 (0xE0)\nFormat : MPEG Video\nFormat version : Version 2\nFormat profile : Main@Main\nFormat settings, BVOP : Yes\nFormat settings, Matrix : Default\nFormat settings, GOP : M=3, N=13\nDuration : 1h 54mn\nBit rate mode : Variable\nBit rate : 664 Kbps\nMaximum bit rate : 9 672 Kbps\nWidth : 352 pixels\nHeight : 288 pixels\nDisplay aspect ratio : 4:3\nFrame rate : 25.000 fps\nStandard : PAL\nColor space : YUV\nChroma subsampling : 4:2:0\nBit depth : 8 bits\nScan type : Progressive\nCompression mode : Lossy\nBits/(Pixel*Frame) : 0.262\nStream size : 543 MiB (82%)\n\nAudio\nID : 192 (0xC0)\nFormat : MPEG Audio\nFormat version : Version 1\nFormat profile : Layer 2\nDuration : 1h 54mn\nBit rate mode : Constant\nBit rate : 128 Kbps\nChannel(s) : 2 channels\nSampling rate : 48.0 KHz\nCompression mode : Lossy\nDelay relative to video : -600ms\nStream size : 105 MiB (16%)\n\n\nScreens: &lt;a href=&quot;\nhttp://www.shotpix.com/images/10977050134262120764.png&quot; rel=&quot;nofollow&quot; target=&quot;_NEW&quot;&gt;\nhttp://www.shotpix.com/images/10977050134262120764.png&lt;/a&gt; &lt;a href=&quot;\nhttp://www.shotpix.com/images/37045364639355007202.png&quot; rel=&quot;nofollow&quot; target=&quot;_NEW&quot;&gt;\nhttp://www.shotpix.com/images/37045364639355007202.png&lt;/a&gt; &lt;a href=&quot;\nhttp://www.shotpix.com/images/63332738067374391347.png&quot; rel=&quot;nofollow&quot; target=&quot;_NEW&quot;&gt;\nhttp://www.shotpix.com/images/63332738067374391347.png&lt;/a&gt; &lt;a href=&quot;\nhttp://www.shotpix.com/images/99596451515983396625.png&quot; rel=&quot;nofollow&quot; target=&quot;_NEW&quot;&gt;\nhttp://www.shotpix.com/images/99596451515983396625.png&lt;/a&gt; &lt;a href=&quot;\nhttp://www.shotpix.com/images/91668313022943058406.png&quot; rel=&quot;nofollow&quot; target=&quot;_NEW&quot;&gt;\nhttp://www.shotpix.com/images/91668313022943058406.png&lt;/a&gt; &lt;a href=&quot;\nhttp://www.shotpix.com/images/98157285069825741199.png&quot; rel=&quot;nofollow&quot; target=&quot;_NEW&quot;&gt;\nhttp://www.shotpix.com/images/98157285069825741199.png&lt;/a&gt;\n","torrent":{"xt":"urn:btih:6e093cf48b5197ffc974c18eacc5c8f4c6cbbe9b","amp;dn":"Dabangg+2+%282012%29+Hindi+HDCAM+MPEG+-+Exclusive","amp;tr":["udp%3A%2F%2Ftracker.openbittorrent.com%3A80","udp%3A%2F%2Fopen.demonii.com%3A1337","udp%3A%2F%2Ftracker.coppersurfer.tk%3A6969","udp%3A%2F%2Fexodus.desync.com%3A6969"],"infoHash":"6e093cf48b5197ffc974c18eacc5c8f4c6cbbe9b","infoHashBuffer":{"type":"Buffer","data":[110,9,60,244,139,81,151,255,201,116,193,142,172,197,200,244,198,203,190,155]},"announce":[],"urlList":[]}}